<?xml version="1.0" encoding="utf-8"?>
<!-- Generator: Adobe Illustrator 27.0.1, SVG Export Plug-In . SVG Version: 6.00 Build 0)  -->
<svg version="1.1" id="Layer_1" xmlns="http://www.w3.org/2000/svg" xmlns:xlink="http://www.w3.org/1999/xlink" x="0px" y="0px"
	 viewBox="0 0 1011.9 576" style="enable-background:new 0 0 1011.9 576;" xml:space="preserve">
<style type="text/css">
	.st0{fill:#B183BA;}
	.st1{fill:#FFFFFF;}
	.st2{enable-background:new    ;}
</style>
<path class="st0" d="M500.8,315.5l75.2-43.4l-7.7-13.3l-70.1,40.5c-5.5-27.2-16-52.6-30.7-75c11.6-112-25.9-230-64.9-199.7
	c-20.6,16-40.1,58.1-57.5,110.4c-18.2-5-37.3-7.7-57.1-7.7s-38.9,2.7-57,7.7c-17.4-52.4-37-94.5-57.6-110.4
	C134.5-5.8,97,112.2,108.6,224.2c-14.8,22.4-25.3,47.8-30.8,75L7.7,258.8L0,272.1l75.2,43.4c-0.7,5.9-1.2,11.9-1.4,17.9H0v15.4h73.6
	c0.2,6.1,0.6,12.1,1.3,18L0,410l7.7,13.3l69.8-40.3C96.7,481.8,183.7,556.3,288,556.3s191.3-74.5,210.6-173.3l69.8,40.3L576,410
	l-74.9-43.3c0.7-5.9,1.1-12,1.3-18H576v-15.4h-73.7C502,327.3,501.6,321.4,500.8,315.5L500.8,315.5z"/>
<g>
	<path class="st1" d="M370,250.2c-27.9,0-50.4,22.6-50.4,50.4H331c0-21.5,17.5-39,39-39s39,17.5,39,39h11.5
		C420.5,272.8,397.9,250.2,370,250.2L370,250.2z"/>
	<path class="st1" d="M206,250.2c-27.9,0-50.4,22.6-50.4,50.4H167c0-21.5,17.4-39,39-39s39,17.5,39,39h11.5
		C256.4,272.8,233.8,250.2,206,250.2L206,250.2z"/>
</g>
<path class="st1" d="M249.4,360.1c0,21.3,17.3,38.6,38.6,38.6s38.6-17.3,38.6-38.6"/>
<path class="st1" d="M371.9,409.5c0,21.5-17.5,39-39,39s-39-17.5-39-39h-11.9c0,21.5-17.5,39-39,39s-39-17.5-39-39h-11.5
	c0,27.9,22.6,50.4,50.4,50.4c19.6,0,36.6-11.2,44.9-27.6c8.3,16.4,25.3,27.6,44.9,27.6c27.9,0,50.4-22.6,50.4-50.4H371.9
	L371.9,409.5z"/>
<g class="st2">
	<path class="st0" d="M612.1,43h79.6v26.9h-26.5v117h-27.5v-117h-25.7V43z"/>
</g>
<g class="st2">
	<path class="st0" d="M707.4,43h27.5v54.1h48.5V43h27.5v143.9h-27.5V124h-48.5v62.9h-27.5V43z"/>
</g>
<g class="st2">
	<path class="st0" d="M842.2,43h78.6v26.9h-51.1v25.7h51.1v26.9h-51.1v37.7h51.1v26.9h-78.6V43z"/>
</g>
<g class="st2">
	<path class="st0" d="M758,336.3c-19,18.6-35.5,27.7-62.5,27.7c-45.1,0-76.1-31.5-76.1-75.7c0-45.5,35.3-75.3,76.5-75.3
		c23.8,0,46.9,10.4,62.7,28.9l-19.2,18.4c-13-13.8-27.3-21-44.1-21c-27.1,0-49.1,20.8-49.1,49.1c0,29.7,21.2,49.5,49.7,49.5
		c17.8,0,29.9-7.2,43.5-20.8L758,336.3z"/>
</g>
<g class="st2">
	<path class="st0" d="M822.5,216.4h27.7l55.5,143.9h-28.5L866,330.7h-58.7l-11.8,29.7H767L822.5,216.4z M836.6,254.5l-19,49.3h38.1
		L836.6,254.5z"/>
</g>
<g class="st2">
	<path class="st0" d="M902.2,216.4h79.6v26.9h-26.5v117h-27.5v-117h-25.7V216.4z"/>
</g>
<g class="st2">
	<path class="st0" d="M626.3,533.7V389.8h26.3c15,0,27.3,1.6,36.3,7c10.8,6.4,17.2,17.6,17.2,30.1c0,11.4-5.2,20-15,27.7
		c16.8,8,25.2,19.6,25.2,37.1c0,11.8-4,21.6-12.4,29.7c-9.6,9.4-20,12.4-34.7,12.4H626.3z M653.8,415.9v30.3h6
		c12.8,0,19.4-5.6,19.4-15.6c0-9.2-6.2-14.6-18.4-14.6H653.8z M653.8,470.6v37.1h9.2c17.2,0,26.5-4.8,26.5-17c0-12.6-9.6-20-28.9-20
		H653.8z"/>
</g>
<g class="st2">
	<path class="st0" d="M880.6,462.2c0,42.3-33.1,74.9-74.3,74.9c-42.7,0-75.3-33.7-75.3-75.5c0-42.7,34.1-75.3,74.9-75.3
		C845.5,386.2,880.6,418.3,880.6,462.2z M758.5,462.2c0,29.3,22,48.7,47.5,48.7c26.1,0,46.9-21.4,46.9-48.9
		c0-26.5-19.8-49.5-47.3-49.5C779.8,412.5,758.5,432.5,758.5,462.2z"/>
</g>
<g class="st2">
	<path class="st0" d="M886.8,389.8h30.9l30.3,46.1l30.3-46.1h30.9l-45.7,69.5l48.5,74.3H981L947.9,483l-33.1,50.7h-31.1l48.7-74.3
		L886.8,389.8z"/>
</g>
</svg>
