<?xml version="1.0" encoding="utf-8"?>
<!-- Generator: Adobe Illustrator 27.0.1, SVG Export Plug-In . SVG Version: 6.00 Build 0)  -->
<svg version="1.1" id="Layer_1" xmlns="http://www.w3.org/2000/svg" xmlns:xlink="http://www.w3.org/1999/xlink" x="0px" y="0px"
	 viewBox="0 0 1040.6 1154.8" style="enable-background:new 0 0 1040.6 1154.8;" xml:space="preserve">
<style type="text/css">
	.st0{fill:#788449;}
	.st1{fill:#FFFFFF;}
</style>
<g>
	<path class="st0" d="M904.8,534.4l135.8-78.4l-13.9-24l-126.6,73.1c-9.9-49.1-28.9-95-55.5-135.5c21-202.3-46.8-415.5-117.3-360.8
		c-37.2,28.9-72.4,105-103.9,199.4c-32.9-9-67.4-13.9-103.2-13.9s-70.3,4.9-103,13.9C385.8,113.5,350.4,37.5,313.1,8.8
		c-70.3-54.9-138,158.3-117.1,360.6c-26.7,40.5-45.7,86.4-55.6,135.5l-126.6-73l-13.9,24l135.9,78.5c-1.3,10.7-2.2,21.5-2.5,32.3H0
		v27.8h133c0.4,11,1.1,21.9,2.3,32.5L0,705l13.9,24L140,656.2c34.7,178.5,191.9,313.1,380.3,313.1s345.6-134.6,380.5-313.1l126,72.9
		l13.7-24l-135.3-78.2c1.3-10.7,2-21.7,2.3-32.5h133v-27.8H907.4C906.8,555.7,906.1,545,904.8,534.4L904.8,534.4z"/>
	<g>
		<path class="st1" d="M668.4,416.4c-50.4,0-91,40.8-91,91H598c0-38.8,31.6-70.5,70.5-70.5c38.8,0,70.5,31.6,70.5,70.5h20.8
			C759.6,457.2,718.8,416.4,668.4,416.4L668.4,416.4z"/>
		<path class="st1" d="M372.1,416.4c-50.4,0-91,40.8-91,91h20.7c0-38.8,31.4-70.5,70.5-70.5s70.5,31.6,70.5,70.5h20.8
			C463.1,457.2,422.3,416.4,372.1,416.4L372.1,416.4z"/>
	</g>
	<path class="st1" d="M450.6,614.9c0,38.5,31.3,69.7,69.7,69.7c38.5,0,69.7-31.3,69.7-69.7"/>
	<path class="st1" d="M671.8,704.2c0,38.8-31.6,70.5-70.5,70.5c-38.8,0-70.5-31.6-70.5-70.5h-21.5c0,38.8-31.6,70.5-70.5,70.5
		s-70.5-31.6-70.5-70.5h-20.8c0,50.4,40.8,91,91,91c35.4,0,66.1-20.2,81.1-49.9c15,29.6,45.7,49.9,81.1,49.9c50.4,0,91-40.8,91-91
		H671.8L671.8,704.2z"/>
</g>
<g>
	<path class="st0" d="M21.1,1029.9h22.8l28.2,85.1l28.5-85.1H123l20.6,122h-22.4l-13.1-77.1l-26,77.1H61.7L36,1074.8l-13.4,77.1H0
		L21.1,1029.9z"/>
	<path class="st0" d="M160.8,1029.9h66.6v22.8h-43.3v21.7h43.3v22.8h-43.3v31.9h43.3v22.8h-66.6V1029.9z"/>
	<path class="st0" d="M368.2,1091.3c0,35.9-28,63.5-63,63.5c-36.2,0-63.9-28.5-63.9-64.1c0-36.2,28.9-63.9,63.5-63.9
		C338.5,1026.9,368.2,1054.1,368.2,1091.3z M264.8,1091.3c0,24.8,18.7,41.3,40.3,41.3c22.1,0,39.8-18.2,39.8-41.5
		c0-22.4-16.8-42-40.1-42C282.8,1049.1,264.8,1066.1,264.8,1091.3z"/>
	<path class="st0" d="M378.9,1029.9h22.9l17.5,77.8l21.9-77.8h19.4l22.2,77.9l17.3-77.8H523l-27.5,122h-22.3l-22.6-78.8l-21.9,78.8
		h-22.1L378.9,1029.9z"/>
	<path class="st0" d="M539.7,1029.9h29.4c21.4,0,36.5,2.5,49.8,15.5c11,10.7,17.7,27.7,17.7,47.1c0,20.9-7.8,38.2-20.9,48.4
		c-13.9,10.9-28.4,11-46.2,11h-29.7L539.7,1029.9L539.7,1029.9z M562.9,1052.7v76.5h12.2c12.7,0,21.7-1.7,28.9-9.3
		c5.6-6.1,9-16,9-27.9c0-25.5-14.1-39.3-40.6-39.3L562.9,1052.7L562.9,1052.7z"/>
	<path class="st0" d="M655.9,1029.9h23.3v82.6c0,13.3,6.5,20,17.7,20c6.6,0,12.6-2.7,15.5-7.3c2.5-3.9,2.9-9.5,2.9-16v-79.3h23.3
		v77.7c0,13.4-0.7,23.6-9.9,34.3c-7.8,9-18,12.9-31.3,12.9c-12.6,0-22.6-3.6-30.2-11.6c-9.9-10.2-11.2-21.2-11.2-37L655.9,1029.9
		L655.9,1029.9z"/>
	<path class="st0" d="M763.8,1029.9h23.3v99.9h33.8v22.1h-57.1V1029.9z"/>
	<path class="st0" d="M874,1029.9h23.4l47.1,122h-24.1l-9.5-25.1h-49.8l-10,25.1H827L874,1029.9z M885.9,1062.2l-16.1,41.8h32.3
		L885.9,1062.2z"/>
	<path class="st0" d="M962.4,1029.9h28.4c15.5,0,26.3,1.9,34.5,9.9c6.1,5.9,9.9,15.1,9.9,25.5c0,16-8,26.8-23.4,32.5l28.9,54.2
		h-25.3l-27.4-51.7h-2.2v51.7h-23.3L962.4,1029.9L962.4,1029.9z M985.7,1077.7h10.7c10.5,0,16-4.2,16-12.6c0-8-5.6-12.4-16.7-12.4
		h-10V1077.7z"/>
</g>
</svg>
