<?xml version="1.0" encoding="UTF-8"?><svg id="Layer_1" xmlns="http://www.w3.org/2000/svg" viewBox="0 0 1011.87 576"><defs><style>.cls-1{fill:#fff;}.cls-2,.cls-3{fill:#b183ba;}.cls-4{letter-spacing:-.02em;}.cls-3{font-family:CenturyGothicPro-Bold, 'Century Gothic Pro';font-size:200.4px;font-weight:700;}.cls-5{letter-spacing:0em;}.cls-6{letter-spacing:-.05em;}.cls-7{letter-spacing:-.02em;}.cls-8{letter-spacing:-.02em;}.cls-9{letter-spacing:0em;}.cls-10{letter-spacing:0em;}.cls-11{letter-spacing:-.05em;}</style></defs><path class="cls-2" d="M500.84,315.47l75.16-43.4-7.69-13.31-70.09,40.47c-5.49-27.22-16.01-52.62-30.72-75.03,11.58-111.96-25.91-229.98-64.86-199.74-20.56,15.98-40.1,58.05-57.54,110.44-18.2-5.03-37.3-7.7-57.1-7.7s-38.89,2.67-57.03,7.7c-17.44-52.39-36.98-94.46-57.61-110.44C134.47-5.77,96.98,112.24,108.56,224.2c-14.76,22.41-25.29,47.81-30.78,75.03L7.69,258.77l-7.69,13.31,75.16,43.4c-.72,5.89-1.19,11.85-1.42,17.88H0v15.37H73.6c.19,6.07,.63,12.09,1.32,18.02L0,410.01l7.69,13.31,69.75-40.27c19.26,98.76,106.22,173.29,210.56,173.29s191.32-74.53,210.56-173.29l69.75,40.27,7.69-13.31-74.92-43.26c.69-5.94,1.12-11.95,1.32-18.02h73.6v-15.37h-73.74c-.23-6.03-.7-11.99-1.42-17.88Z"/><g><path class="cls-1" d="M370.01,250.24c-27.86,0-50.44,22.58-50.44,50.44h11.47c0-21.52,17.45-38.97,38.97-38.97s38.97,17.45,38.97,38.97h11.47c0-27.86-22.58-50.44-50.44-50.44Z"/><path class="cls-1" d="M205.99,250.24c-27.86,0-50.44,22.58-50.44,50.44h11.47c0-21.52,17.45-38.97,38.97-38.97s38.97,17.45,38.97,38.97h11.47c0-27.86-22.58-50.44-50.44-50.44Z"/></g><path class="cls-1" d="M249.44,360.13c0,21.29,17.26,38.56,38.56,38.56s38.56-17.26,38.56-38.56"/><path class="cls-1" d="M371.89,409.49c0,21.52-17.45,38.97-38.97,38.97s-38.97-17.45-38.97-38.97h-11.9c0,21.52-17.45,38.97-38.97,38.97s-38.97-17.45-38.97-38.97h-11.47c0,27.86,22.58,50.44,50.44,50.44,19.61,0,36.57-11.22,44.92-27.57,8.34,16.35,25.3,27.57,44.92,27.57,27.86,0,50.44-22.58,50.44-50.44h-11.47Z"/><text class="cls-3" transform="translate(609.89 186.92)"><tspan class="cls-7" x="0" y="0">T</tspan><tspan class="cls-5" x="80.84" y="0">H</tspan><tspan class="cls-10" x="215.69" y="0">E</tspan><tspan class="cls-8" x="0" y="173.4">C</tspan><tspan class="cls-11" x="152.32" y="173.4">A</tspan><tspan class="cls-9" x="290.13" y="173.4">T</tspan><tspan class="cls-4" x="0" y="346.8">B</tspan><tspan class="cls-6" x="111.56" y="346.8">O</tspan><tspan class="cls-10" x="269.91" y="346.8">X</tspan></text></svg>